<svg xmlns="http://www.w3.org/2000/svg" version="1.1" xmlns:xlink="http://www.w3.org/1999/xlink" xmlns:svgjs="http://svgjs.dev/svgjs" width="1500" height="1500" viewBox="0 0 1500 1500"><g transform="matrix(1,0,0,1,-0.21332335329316265,-0.21332335329350371)"><svg viewBox="0 0 334 334" data-background-color="#000000" preserveAspectRatio="xMidYMid meet" height="1500" width="1500" xmlns="http://www.w3.org/2000/svg" xmlns:xlink="http://www.w3.org/1999/xlink"><g id="tight-bounds" transform="matrix(1,0,0,1,0.04749999999998522,0.04750000000001364)"><svg viewBox="0 0 333.90454557049503 333.90454557049503" height="333.90454557049503" width="333.90454557049503"><rect width="333.905" height="333.905" fill="url(#73eecbec-2485-41f0-989c-8c19161d700f)" mask="url(#0ccf4f27-7609-4ded-b34a-260bb0845ab9)" data-fill-palette-color="tertiary"></rect><g><svg></svg></g><g><svg viewBox="0 0 333.90454557049503 333.90454557049503" height="333.90454557049503" width="333.90454557049503"><g><path d="M0 166.952c0-92.205 74.747-166.952 166.952-166.952 92.205 0 166.952 74.747 166.953 166.952 0 92.205-74.747 166.952-166.953 166.953-92.205 0-166.952-74.747-166.952-166.953zM166.952 321.723c85.478 0 154.771-69.293 154.771-154.771 0-85.478-69.293-154.771-154.771-154.771-85.478 0-154.771 69.293-154.771 154.771 0 85.478 69.293 154.771 154.771 154.771z" data-fill-palette-color="tertiary" fill="url(#73eecbec-2485-41f0-989c-8c19161d700f)" stroke="transparent"></path><ellipse rx="160.27418187383762" ry="160.27418187383762" cx="166.95227278524752" cy="166.95227278524752" fill="url(#73eecbec-2485-41f0-989c-8c19161d700f)" stroke="transparent" stroke-width="0" fill-opacity="1" data-fill-palette-color="tertiary"></ellipse></g><g transform="matrix(1,0,0,1,121.50518228977597,71.17305217166896)"><svg viewBox="0 0 90.89418099094308 191.55844122715712" height="191.55844122715712" width="90.89418099094308"><g><svg viewBox="0 0 90.89418099094308 191.55844122715712" height="191.55844122715712" width="90.89418099094308"><g><svg viewBox="0 0 128.10476257495782 269.9793140231843" height="191.55844122715712" width="90.89418099094308"><g><svg viewBox="0 0 128.10476257495782 269.9793140231843" height="269.9793140231843" width="128.10476257495782"><g id="textblocktransform"><svg viewBox="0 0 128.10476257495782 269.9793140231843" height="269.9793140231843" width="128.10476257495782" id="textblock"><g><svg viewBox="0 0 128.10476257495782 190.3746100603733" height="190.3746100603733" width="128.10476257495782"><g transform="matrix(1,0,0,1,0,0)"><svg width="128.10476257495782" viewBox="4 -39.7 26.95 40.050000000000004" height="190.3746100603733" data-palette-color="#000000"><path d="M14.85-5L21.65-5Q23.5-5 24.25-6.05 25-7.1 25-8.4L25-8.4 25-31.3Q25-32.55 24.25-33.6 23.5-34.65 21.65-34.65L21.65-34.65 9.95-34.65 9.9-2.05Q9.9-0.95 9.05-0.3 8.2 0.35 6.95 0.35L6.95 0.35Q4 0.35 4-2.05L4-2.05 4-36.7Q4-38.5 4.93-39.1 5.85-39.7 7.15-39.7L7.15-39.7 22.9-39.7Q24.2-39.7 25.6-39.15 27-38.6 28.3-37.75L28.3-37.75 28.25-37.75Q29.55-36.8 30.25-35.27 30.95-33.75 30.95-31.75L30.95-31.75 30.95-8Q30.95-3.95 28.25-1.95L28.25-1.95Q26.95-1 25.58-0.48 24.2 0.05 22.9 0.05L22.9 0.05 14.5 0.05Q13.65 0.05 13.18-0.65 12.7-1.35 12.7-2.5L12.7-2.5Q12.7-5 14.85-5L14.85-5Z" opacity="1" transform="matrix(1,0,0,1,0,0)" fill="#000000" class="wordmark-text-0" data-fill-palette-color="quaternary" id="text-0"></path></svg></g></svg></g><g transform="matrix(1,0,0,1,0,235.317486504986)"><svg viewBox="0 0 80.32168613449855 34.66182751819831" height="34.66182751819831" width="80.32168613449855"><g transform="matrix(1,0,0,1,0,0)"><svg width="80.32168613449855" viewBox="1.7 -37.7 89.09 38.45" height="34.66182751819831" data-palette-color="#000000"><path d="M12.35-27.15Q14.5-27.15 16.25-26.43 18-25.7 19.6-24.15L19.6-24.15 16.95-20.65Q15.85-21.55 14.88-21.98 13.9-22.4 12.75-22.4L12.75-22.4Q10.5-22.4 9.35-20.28 8.2-18.15 8.2-13.1L8.2-13.1Q8.2-8.2 9.38-6.2 10.55-4.2 12.75-4.2L12.75-4.2Q13.85-4.2 14.75-4.6 15.65-5 16.85-5.85L16.85-5.85 19.6-2.3Q16.4 0.75 12.45 0.75L12.45 0.75Q7.35 0.75 4.53-2.73 1.7-6.2 1.7-13L1.7-13Q1.7-17.4 3-20.6 4.3-23.8 6.73-25.48 9.15-27.15 12.35-27.15L12.35-27.15ZM32.05-27.15Q37.05-27.15 39.82-23.65 42.6-20.15 42.6-13.25L42.6-13.25Q42.6-6.65 39.8-2.95 37 0.75 32.05 0.75L32.05 0.75Q27.1 0.75 24.3-2.88 21.5-6.5 21.5-13.25L21.5-13.25Q21.5-19.95 24.3-23.55 27.1-27.15 32.05-27.15L32.05-27.15ZM32.05-22.5Q29.9-22.5 28.9-20.38 27.9-18.25 27.9-13.25L27.9-13.25Q27.9-8.2 28.9-6.08 29.9-3.95 32.05-3.95L32.05-3.95Q34.2-3.95 35.2-6.08 36.2-8.2 36.2-13.25L36.2-13.25Q36.2-18.3 35.2-20.4 34.2-22.5 32.05-22.5L32.05-22.5ZM60.09-37.7L66.25-37.05 66.25 0 60.8 0 60.5-3.05Q58.15 0.75 54.45 0.75L54.45 0.75Q50.34 0.75 48.17-2.93 46-6.6 46-13.2L46-13.2Q46-17.4 47.12-20.58 48.25-23.75 50.25-25.45 52.25-27.15 54.84-27.15L54.84-27.15Q58.05-27.15 60.09-24.5L60.09-24.5 60.09-37.7ZM56.2-3.9Q57.34-3.9 58.27-4.7 59.2-5.5 60.09-7L60.09-7 60.09-19.85Q58.5-22.55 56.45-22.55L56.45-22.55Q52.4-22.55 52.4-13.25L52.4-13.25Q52.4-8.2 53.4-6.05 54.4-3.9 56.2-3.9L56.2-3.9ZM90.79-13.85Q90.79-13.4 90.64-11.3L90.64-11.3 76.99-11.3Q77.19-7.2 78.42-5.58 79.64-3.95 81.89-3.95L81.89-3.95Q83.44-3.95 84.69-4.48 85.94-5 87.39-6.15L87.39-6.15 89.94-2.65Q86.44 0.75 81.54 0.75L81.54 0.75Q76.34 0.75 73.57-2.85 70.79-6.45 70.79-13L70.79-13Q70.79-19.55 73.44-23.35 76.09-27.15 80.94-27.15L80.94-27.15Q85.59-27.15 88.19-23.78 90.79-20.4 90.79-13.85L90.79-13.85ZM84.79-15.3L84.79-15.65Q84.79-19.4 83.89-21.13 82.99-22.85 80.99-22.85L80.99-22.85Q79.14-22.85 78.17-21.18 77.19-19.5 76.99-15.3L76.99-15.3 84.79-15.3Z" opacity="1" transform="matrix(1,0,0,1,0,0)" fill="#000000" class="slogan-text-1" data-fill-palette-color="quaternary" id="text-1"></path></svg></g></svg></g></svg></g></svg></g><g></g></svg></g></svg></g></svg></g></svg></g><defs></defs><mask id="0ccf4f27-7609-4ded-b34a-260bb0845ab9"><g id="SvgjsG1188"><svg viewBox="0 0 333.90454557049503 333.90454557049503" height="333.90454557049503" width="333.90454557049503"><g><svg></svg></g><g><svg viewBox="0 0 333.90454557049503 333.90454557049503" height="333.90454557049503" width="333.90454557049503"><g><path d="M0 166.952c0-92.205 74.747-166.952 166.952-166.952 92.205 0 166.952 74.747 166.953 166.952 0 92.205-74.747 166.952-166.953 166.953-92.205 0-166.952-74.747-166.952-166.953zM166.952 321.723c85.478 0 154.771-69.293 154.771-154.771 0-85.478-69.293-154.771-154.771-154.771-85.478 0-154.771 69.293-154.771 154.771 0 85.478 69.293 154.771 154.771 154.771z" fill="white" stroke="transparent"></path><ellipse rx="160.27418187383762" ry="160.27418187383762" cx="166.95227278524752" cy="166.95227278524752" fill="white" stroke="transparent" stroke-width="0" fill-opacity="1"></ellipse></g><g transform="matrix(1,0,0,1,121.50518228977597,71.17305217166896)"><svg viewBox="0 0 90.89418099094308 191.55844122715712" height="191.55844122715712" width="90.89418099094308"><g><svg viewBox="0 0 90.89418099094308 191.55844122715712" height="191.55844122715712" width="90.89418099094308"><g><svg viewBox="0 0 128.10476257495782 269.9793140231843" height="191.55844122715712" width="90.89418099094308"><g><svg viewBox="0 0 128.10476257495782 269.9793140231843" height="269.9793140231843" width="128.10476257495782"><g id="SvgjsG1187"><svg viewBox="0 0 128.10476257495782 269.9793140231843" height="269.9793140231843" width="128.10476257495782" id="SvgjsSvg1186"><g><svg viewBox="0 0 128.10476257495782 190.3746100603733" height="190.3746100603733" width="128.10476257495782"><g transform="matrix(1,0,0,1,0,0)"><svg width="128.10476257495782" viewBox="4 -39.7 26.95 40.050000000000004" height="190.3746100603733" data-palette-color="#000000"><path d="M14.85-5L21.65-5Q23.5-5 24.25-6.05 25-7.1 25-8.4L25-8.4 25-31.3Q25-32.55 24.25-33.6 23.5-34.65 21.65-34.65L21.65-34.65 9.95-34.65 9.9-2.05Q9.9-0.95 9.05-0.3 8.2 0.35 6.95 0.35L6.95 0.35Q4 0.35 4-2.05L4-2.05 4-36.7Q4-38.5 4.93-39.1 5.85-39.7 7.15-39.7L7.15-39.7 22.9-39.7Q24.2-39.7 25.6-39.15 27-38.6 28.3-37.75L28.3-37.75 28.25-37.75Q29.55-36.8 30.25-35.27 30.95-33.75 30.95-31.75L30.95-31.75 30.95-8Q30.95-3.95 28.25-1.95L28.25-1.95Q26.95-1 25.58-0.48 24.2 0.05 22.9 0.05L22.9 0.05 14.5 0.05Q13.65 0.05 13.18-0.65 12.7-1.35 12.7-2.5L12.7-2.5Q12.7-5 14.85-5L14.85-5Z" opacity="1" transform="matrix(1,0,0,1,0,0)" fill="black" class="wordmark-text-0" id="SvgjsPath1185"></path></svg></g></svg></g><g transform="matrix(1,0,0,1,0,235.317486504986)"><svg viewBox="0 0 80.32168613449855 34.66182751819831" height="34.66182751819831" width="80.32168613449855"><g transform="matrix(1,0,0,1,0,0)"><svg width="80.32168613449855" viewBox="1.7 -37.7 89.09 38.45" height="34.66182751819831" data-palette-color="#000000"><path d="M12.35-27.15Q14.5-27.15 16.25-26.43 18-25.7 19.6-24.15L19.6-24.15 16.95-20.65Q15.85-21.55 14.88-21.98 13.9-22.4 12.75-22.4L12.75-22.4Q10.5-22.4 9.35-20.28 8.2-18.15 8.2-13.1L8.2-13.1Q8.2-8.2 9.38-6.2 10.55-4.2 12.75-4.2L12.75-4.2Q13.85-4.2 14.75-4.6 15.65-5 16.85-5.85L16.85-5.85 19.6-2.3Q16.4 0.75 12.45 0.75L12.45 0.75Q7.35 0.75 4.53-2.73 1.7-6.2 1.7-13L1.7-13Q1.7-17.4 3-20.6 4.3-23.8 6.73-25.48 9.15-27.15 12.35-27.15L12.35-27.15ZM32.05-27.15Q37.05-27.15 39.82-23.65 42.6-20.15 42.6-13.25L42.6-13.25Q42.6-6.65 39.8-2.95 37 0.75 32.05 0.75L32.05 0.75Q27.1 0.75 24.3-2.88 21.5-6.5 21.5-13.25L21.5-13.25Q21.5-19.95 24.3-23.55 27.1-27.15 32.05-27.15L32.05-27.15ZM32.05-22.5Q29.9-22.5 28.9-20.38 27.9-18.25 27.9-13.25L27.9-13.25Q27.9-8.2 28.9-6.08 29.9-3.95 32.05-3.95L32.05-3.95Q34.2-3.95 35.2-6.08 36.2-8.2 36.2-13.25L36.2-13.25Q36.2-18.3 35.2-20.4 34.2-22.5 32.05-22.5L32.05-22.5ZM60.09-37.7L66.25-37.05 66.25 0 60.8 0 60.5-3.05Q58.15 0.75 54.45 0.75L54.45 0.75Q50.34 0.75 48.17-2.93 46-6.6 46-13.2L46-13.2Q46-17.4 47.12-20.58 48.25-23.75 50.25-25.45 52.25-27.15 54.84-27.15L54.84-27.15Q58.05-27.15 60.09-24.5L60.09-24.5 60.09-37.7ZM56.2-3.9Q57.34-3.9 58.27-4.7 59.2-5.5 60.09-7L60.09-7 60.09-19.85Q58.5-22.55 56.45-22.55L56.45-22.55Q52.4-22.55 52.4-13.25L52.4-13.25Q52.4-8.2 53.4-6.05 54.4-3.9 56.2-3.9L56.2-3.9ZM90.79-13.85Q90.79-13.4 90.64-11.3L90.64-11.3 76.99-11.3Q77.19-7.2 78.42-5.58 79.64-3.95 81.89-3.95L81.89-3.95Q83.44-3.95 84.69-4.48 85.94-5 87.39-6.15L87.39-6.15 89.94-2.65Q86.44 0.75 81.54 0.75L81.54 0.75Q76.34 0.75 73.57-2.85 70.79-6.45 70.79-13L70.79-13Q70.79-19.55 73.44-23.35 76.09-27.15 80.94-27.15L80.94-27.15Q85.59-27.15 88.19-23.78 90.79-20.4 90.79-13.85L90.79-13.85ZM84.79-15.3L84.79-15.65Q84.79-19.4 83.89-21.13 82.99-22.85 80.99-22.85L80.99-22.85Q79.14-22.85 78.17-21.18 77.19-19.5 76.99-15.3L76.99-15.3 84.79-15.3Z" opacity="1" transform="matrix(1,0,0,1,0,0)" fill="black" class="slogan-text-1" id="SvgjsPath1184"></path></svg></g></svg></g></svg></g></svg></g><g></g></svg></g></svg></g></svg></g></svg></g><defs><mask></mask></defs></svg><rect width="333.90454557049503" height="333.90454557049503" fill="black" stroke="none" visibility="hidden"></rect></g></mask><linearGradient x1="0.054" x2="0.941" y1="0.5" y2="0.5" id="73eecbec-2485-41f0-989c-8c19161d700f"><stop stop-color="#9c7945" offset="0"></stop><stop stop-color="#faf3aa" offset="0.498"></stop><stop stop-color="#9c7945" offset="1"></stop></linearGradient></svg><rect width="333.90454557049503" height="333.90454557049503" fill="none" stroke="none" visibility="hidden"></rect></g></svg></g></svg>